<?xml version="1.0" encoding="UTF-8"?>
<!-- Generator: visioncortex VTracer 0.6.3 -->
<svg version="1.1" xmlns="http://www.w3.org/2000/svg" width="1280" height="800">
<path d="M0 0 C422.4 0 844.8 0 1280 0 C1280 264 1280 528 1280 800 C857.6 800 435.2 800 0 800 C0 536 0 272 0 0 Z " fill="#000100" transform="translate(0,0)"/>
<path d="M0 0 C422.4 0 844.8 0 1280 0 C1280 264 1280 528 1280 800 C857.6 800 435.2 800 0 800 C0 536 0 272 0 0 Z M31 134 C29.36 137.27 29.86 140.89 29.87 144.49 C29.87 145.38 29.87 146.27 29.87 147.19 C29.86 150.22 29.86 153.25 29.87 156.27 C29.86 158.45 29.86 160.63 29.86 162.81 C29.85 168.82 29.85 174.83 29.85 180.84 C29.85 187.31 29.85 193.79 29.84 200.26 C29.84 212.95 29.83 225.64 29.83 238.33 C29.83 248.64 29.83 258.95 29.83 269.26 C29.83 272.23 29.83 275.19 29.82 278.16 C29.82 278.89 29.82 279.63 29.82 280.39 C29.82 301.12 29.81 321.86 29.81 342.59 C29.81 343.37 29.81 344.15 29.81 344.96 C29.81 348.92 29.81 352.89 29.81 356.85 C29.81 357.64 29.81 358.43 29.81 359.24 C29.81 360.83 29.81 362.42 29.81 364.02 C29.82 388.8 29.81 413.59 29.79 438.37 C29.78 466.2 29.77 494.02 29.77 521.84 C29.77 524.81 29.77 527.77 29.77 530.74 C29.77 531.83 29.77 531.83 29.77 532.95 C29.77 544.72 29.76 556.49 29.76 568.26 C29.75 580.07 29.75 591.89 29.75 603.71 C29.76 610.12 29.76 616.53 29.75 622.93 C29.74 628.79 29.74 634.65 29.75 640.51 C29.75 642.63 29.75 644.76 29.74 646.89 C29.74 649.76 29.74 652.64 29.75 655.51 C29.75 656.35 29.74 657.2 29.74 658.06 C29.58 662.5 29.58 662.5 32 666 C34.72 666.2 37.33 666.27 40.05 666.25 C41.32 666.25 41.32 666.25 42.62 666.26 C45.5 666.26 48.38 666.25 51.25 666.25 C53.33 666.25 55.41 666.25 57.49 666.25 C63.25 666.26 69.01 666.25 74.77 666.24 C81.01 666.24 87.26 666.24 93.51 666.25 C104.47 666.25 115.44 666.25 126.4 666.24 C138.18 666.23 149.95 666.23 161.72 666.23 C162.83 666.23 162.83 666.23 163.97 666.23 C167.75 666.23 171.54 666.23 175.32 666.23 C202.75 666.23 230.17 666.22 257.59 666.21 C284.76 666.2 311.93 666.19 339.1 666.19 C339.94 666.19 340.78 666.19 341.65 666.19 C349.35 666.19 357.05 666.19 364.75 666.19 C383.89 666.19 403.04 666.18 422.18 666.18 C423.05 666.18 423.92 666.18 424.82 666.18 C467.25 666.18 509.68 666.16 552.11 666.15 C566.84 666.15 581.56 666.14 596.29 666.14 C597.21 666.14 598.12 666.14 599.06 666.14 C641.51 666.12 683.95 666.12 726.4 666.11 C729.15 666.11 731.91 666.11 734.66 666.11 C752.92 666.11 771.17 666.1 789.43 666.1 C825.76 666.1 862.08 666.09 898.41 666.09 C900.14 666.08 901.87 666.08 903.6 666.08 C956.9 666.08 1010.2 666.06 1063.5 666.05 C1065.65 666.05 1067.8 666.05 1069.95 666.05 C1129.63 666.03 1189.32 666.02 1249 666 C1249 490.77 1249 315.54 1249 135 C1245.83 133.42 1242.43 133.86 1238.95 133.88 C1238.11 133.87 1237.26 133.87 1236.39 133.87 C1233.51 133.87 1230.64 133.87 1227.76 133.88 C1225.69 133.88 1223.61 133.88 1221.53 133.87 C1215.78 133.87 1210.02 133.87 1204.27 133.88 C1198.03 133.88 1191.79 133.88 1185.54 133.88 C1174.59 133.88 1163.63 133.88 1152.67 133.88 C1140.91 133.89 1129.15 133.89 1117.39 133.89 C1116.65 133.89 1115.91 133.89 1115.14 133.89 C1111.36 133.89 1107.58 133.89 1103.8 133.89 C1076.39 133.88 1048.99 133.89 1021.59 133.89 C994.45 133.9 967.3 133.9 940.16 133.91 C938.89 133.91 938.89 133.91 937.6 133.91 C929.91 133.91 922.22 133.91 914.52 133.91 C895.4 133.91 876.27 133.91 857.14 133.91 C855.83 133.91 855.83 133.91 854.5 133.91 C812.11 133.91 769.71 133.92 727.32 133.92 C712.6 133.93 697.89 133.93 683.17 133.93 C682.26 133.93 681.35 133.93 680.41 133.93 C638 133.94 595.59 133.94 553.17 133.94 C550.42 133.95 547.67 133.95 544.92 133.95 C526.68 133.95 508.43 133.95 490.19 133.95 C453.89 133.95 417.6 133.95 381.3 133.96 C379.57 133.96 377.84 133.96 376.11 133.96 C298.27 133.96 220.43 133.97 142.59 133.98 C141.86 133.98 141.14 133.98 140.38 133.98 C103.92 133.99 67.46 133.99 31 134 Z " fill="#FBFDFD" transform="translate(0,0)"/>
<path d="M0 0 C0.78 -0 1.56 -0 2.36 -0 C5.01 -0.01 7.65 -0 10.29 0 C12.2 0 14.11 0 16.02 -0 C21.31 -0 26.6 0 31.89 0.01 C37.63 0.01 43.37 0.01 49.11 0.01 C60.51 0.01 71.92 0.01 83.32 0.02 C92.8 0.02 102.29 0.02 111.77 0.03 C112.79 0.03 112.79 0.03 113.84 0.03 C116.61 0.03 119.39 0.03 122.17 0.03 C155.87 0.03 189.56 0.04 223.26 0.06 C234.18 0.07 245.1 0.07 256.03 0.08 C313.23 0.1 370.43 0.13 427.63 0.17 C431.82 0.17 436.01 0.18 440.2 0.18 C441.44 0.18 441.44 0.18 442.72 0.18 C451.13 0.19 459.55 0.19 467.97 0.2 C469.65 0.2 471.34 0.2 473.03 0.2 C527.25 0.24 581.47 0.26 635.69 0.26 C674.64 0.27 713.59 0.28 752.55 0.3 C753.35 0.3 754.15 0.3 754.97 0.3 C772.55 0.31 790.12 0.33 807.7 0.34 C814.77 0.35 821.84 0.35 828.91 0.36 C830.07 0.36 830.07 0.36 831.25 0.36 C856.21 0.38 881.16 0.38 906.11 0.38 C931.23 0.37 956.36 0.39 981.48 0.42 C984.95 0.42 988.42 0.43 991.88 0.43 C992.9 0.43 992.9 0.43 993.94 0.44 C1005.39 0.45 1016.83 0.44 1028.27 0.43 C1038.2 0.42 1048.14 0.43 1058.08 0.46 C1063.75 0.47 1069.42 0.48 1075.09 0.46 C1080.25 0.45 1085.4 0.45 1090.55 0.48 C1092.41 0.49 1094.27 0.48 1096.13 0.47 C1098.64 0.46 1101.15 0.47 1103.67 0.49 C1104.39 0.48 1105.12 0.47 1105.86 0.46 C1109.7 0.53 1111.31 1 1114.32 3.48 C1117.72 7.68 1118.71 9.71 1118.71 15.08 C1118.72 16.33 1118.72 17.58 1118.73 18.87 C1118.73 20.27 1118.72 21.67 1118.72 23.06 C1118.72 24.54 1118.73 26.02 1118.73 27.5 C1118.74 31.57 1118.74 35.64 1118.73 39.71 C1118.73 44.1 1118.74 48.48 1118.75 52.87 C1118.76 61.47 1118.76 70.06 1118.76 78.66 C1118.76 85.64 1118.76 92.63 1118.76 99.61 C1118.77 100.6 1118.77 101.6 1118.77 102.62 C1118.77 104.64 1118.77 106.65 1118.77 108.67 C1118.78 127.59 1118.78 146.51 1118.77 165.43 C1118.77 182.76 1118.78 200.09 1118.8 217.42 C1118.82 235.19 1118.83 252.97 1118.82 270.74 C1118.82 280.73 1118.82 290.72 1118.84 300.7 C1118.85 309.2 1118.85 317.7 1118.84 326.2 C1118.83 330.54 1118.83 334.88 1118.84 339.23 C1118.85 343.19 1118.85 347.16 1118.84 351.13 C1118.83 352.57 1118.84 354.01 1118.84 355.45 C1118.85 357.4 1118.84 359.35 1118.83 361.29 C1118.83 362.38 1118.83 363.47 1118.83 364.58 C1118.65 365.84 1118.65 365.84 1118.46 367.12 C1117.47 367.78 1116.48 368.44 1115.46 369.12 C1115.13 370.11 1114.8 371.1 1114.46 372.12 C1111.6 373.08 1109.84 373.25 1106.88 373.25 C1105.93 373.26 1104.99 373.26 1104.01 373.26 C1102.97 373.26 1101.93 373.26 1100.86 373.26 C1099.76 373.26 1098.65 373.26 1097.52 373.26 C1093.8 373.27 1090.08 373.27 1086.36 373.27 C1083.71 373.27 1081.05 373.28 1078.39 373.28 C1071.91 373.29 1065.43 373.29 1058.95 373.29 C1053.69 373.29 1048.43 373.29 1043.16 373.3 C1028.25 373.31 1013.34 373.31 998.42 373.31 C997.62 373.31 996.81 373.31 995.99 373.31 C995.18 373.31 994.37 373.31 993.55 373.31 C980.48 373.31 967.42 373.32 954.36 373.33 C940.96 373.35 927.56 373.35 914.16 373.35 C906.64 373.35 899.11 373.35 891.58 373.37 C885.17 373.37 878.77 373.38 872.36 373.37 C869.09 373.37 865.82 373.37 862.55 373.38 C859.01 373.38 855.47 373.38 851.93 373.37 C850.89 373.38 849.84 373.38 848.77 373.39 C847.83 373.38 846.88 373.38 845.91 373.37 C844.69 373.37 844.69 373.37 843.43 373.37 C841.46 373.12 841.46 373.12 839.46 371.12 C839.04 368.08 839.04 368.08 838.83 364.5 C838.76 363.31 838.68 362.12 838.61 360.9 C838.56 359.98 838.51 359.07 838.46 358.12 C841.62 356.01 842.35 355.87 845.97 355.88 C846.89 355.87 847.82 355.87 848.78 355.87 C850.31 355.87 850.31 355.87 851.88 355.88 C852.96 355.88 854.05 355.88 855.17 355.88 C858.82 355.87 862.47 355.89 866.12 355.9 C868.74 355.9 871.35 355.9 873.96 355.9 C879.59 355.89 885.22 355.9 890.85 355.91 C898.99 355.93 907.14 355.93 915.28 355.94 C928.49 355.94 941.7 355.95 954.9 355.97 C967.74 355.99 980.57 356.01 993.4 356.01 C994.19 356.01 994.98 356.01 995.8 356.02 C999.77 356.02 1003.73 356.02 1007.7 356.02 C1040.62 356.04 1073.54 356.08 1106.46 356.12 C1106.35 313.24 1106.24 270.36 1106.13 227.48 C1106.11 222.42 1106.1 217.36 1106.09 212.31 C1106.08 210.8 1106.08 210.8 1106.08 209.25 C1106.03 192.93 1105.99 176.61 1105.95 160.29 C1105.91 143.55 1105.87 126.81 1105.82 110.07 C1105.79 99.73 1105.77 89.4 1105.74 79.06 C1105.73 71.98 1105.71 64.9 1105.69 57.82 C1105.67 53.74 1105.66 49.65 1105.65 45.56 C1105.65 41.82 1105.64 38.08 1105.62 34.34 C1105.62 32.34 1105.61 30.33 1105.61 28.33 C1105.61 27.15 1105.6 25.97 1105.6 24.76 C1105.59 23.22 1105.59 23.22 1105.59 21.66 C1105.56 19 1105.56 19 1104.46 16.12 C739.48 16.12 374.5 16.12 -1.54 16.12 C-19.17 191.07 -19.17 191.07 -0.54 360.12 C0.01 360.12 0.57 360.12 1.15 360.12 C34.13 360.05 67.11 360 100.1 359.97 C104.06 359.97 108.02 359.96 111.98 359.96 C113.16 359.96 113.16 359.96 114.36 359.96 C127.13 359.94 139.9 359.92 152.67 359.89 C165.77 359.86 178.86 359.85 191.96 359.84 C200.05 359.84 208.13 359.82 216.22 359.8 C222.41 359.78 228.61 359.78 234.8 359.78 C237.35 359.78 239.89 359.78 242.43 359.77 C245.9 359.75 249.37 359.75 252.83 359.76 C253.85 359.75 254.86 359.75 255.9 359.74 C264.7 359.79 264.7 359.79 268.46 363.12 C268.98 366.01 268.98 366.01 268.83 369.25 C268.78 370.86 268.78 370.86 268.73 372.51 C268.46 375.12 268.46 375.12 267.46 376.12 C266 376.22 264.53 376.25 263.06 376.25 C261.63 376.25 261.63 376.25 260.17 376.26 C259.11 376.26 258.05 376.25 256.96 376.25 C255.28 376.25 255.28 376.25 253.57 376.26 C249.79 376.26 246.02 376.26 242.24 376.25 C239.55 376.25 236.85 376.26 234.16 376.26 C227.58 376.26 221 376.26 214.42 376.26 C209.07 376.26 203.73 376.26 198.38 376.26 C197.24 376.26 197.24 376.26 196.08 376.26 C194.54 376.26 193 376.26 191.45 376.26 C176.97 376.26 162.49 376.26 148 376.25 C135.57 376.25 123.13 376.25 110.69 376.25 C96.27 376.26 81.84 376.26 67.41 376.26 C65.88 376.26 64.34 376.26 62.8 376.26 C61.67 376.26 61.67 376.26 60.51 376.26 C55.17 376.26 49.83 376.26 44.49 376.26 C37.98 376.26 31.48 376.26 24.97 376.26 C21.65 376.25 18.32 376.25 15 376.26 C11.41 376.26 7.81 376.26 4.21 376.25 C3.16 376.25 2.1 376.25 1.01 376.26 C0.05 376.25 -0.91 376.25 -1.9 376.25 C-2.73 376.25 -3.56 376.25 -4.41 376.25 C-7.14 376.09 -9.02 375.57 -11.12 373.79 C-16.68 367.31 -16.38 360.81 -16.3 352.62 C-16.3 351.15 -16.31 349.67 -16.32 348.19 C-16.35 344.14 -16.33 340.09 -16.31 336.05 C-16.3 331.67 -16.31 327.3 -16.33 322.93 C-16.35 314.38 -16.34 305.82 -16.32 297.26 C-16.31 290.31 -16.3 283.35 -16.31 276.39 C-16.31 274.91 -16.31 274.91 -16.31 273.39 C-16.31 271.38 -16.31 269.37 -16.31 267.36 C-16.32 248.5 -16.3 229.64 -16.26 210.78 C-16.23 194.6 -16.23 178.42 -16.25 162.24 C-16.27 143.45 -16.28 124.66 -16.26 105.86 C-16.25 103.86 -16.25 101.86 -16.25 99.85 C-16.25 98.87 -16.25 97.88 -16.25 96.86 C-16.24 89.92 -16.24 82.97 -16.25 76.02 C-16.26 67.56 -16.26 59.09 -16.23 50.63 C-16.21 46.31 -16.2 41.99 -16.22 37.67 C-16.23 33.71 -16.22 29.76 -16.19 25.8 C-16.19 24.38 -16.19 22.95 -16.2 21.52 C-16.25 14.26 -16.18 8.52 -11.91 2.46 C-8.67 -0.71 -4.21 -0.01 0 0 Z " fill="#FAFCFC" transform="translate(88.54190289974213,196.8764601945877)"/>
<path d="M0 0 C1.77 0 3.53 0.02 5.3 0.04 C6.74 0.05 6.74 0.05 8.21 0.05 C11.41 0.07 14.6 0.11 17.8 0.14 C20.01 0.16 22.22 0.18 24.43 0.19 C29.07 0.23 33.71 0.28 38.35 0.33 C44.31 0.4 50.27 0.44 56.23 0.48 C60.8 0.51 65.37 0.56 69.94 0.61 C72.13 0.63 74.33 0.65 76.53 0.66 C79.6 0.68 82.66 0.72 85.73 0.76 C86.65 0.76 87.56 0.76 88.51 0.76 C89.75 0.79 89.75 0.79 91.03 0.81 C91.75 0.82 92.48 0.82 93.23 0.83 C95.01 1.22 95.01 1.22 97.01 4.22 C97.26 6.63 97.26 6.63 97.26 9.5 C97.26 11.12 97.26 11.12 97.27 12.77 C97.26 14.51 97.26 14.51 97.24 16.29 C97.24 17.49 97.24 18.68 97.24 19.91 C97.24 22.43 97.23 24.95 97.22 27.47 C97.2 31.34 97.2 35.21 97.2 39.09 C97.2 41.53 97.19 43.97 97.18 46.42 C97.18 47.58 97.18 48.75 97.18 49.95 C97.17 51.02 97.17 52.1 97.16 53.2 C97.16 54.15 97.15 55.1 97.15 56.07 C97.01 58.22 97.01 58.22 96.01 59.22 C92.68 59.37 89.35 59.27 86.01 59.22 C86.51 64.17 86.51 64.17 87.01 69.22 C87.67 69.22 88.33 69.22 89.01 69.22 C89.2 69.87 89.38 70.53 89.57 71.2 C90.68 75.07 91.74 78.69 93.58 82.29 C95.46 86.14 96.22 90.03 97.01 94.22 C84.34 94.99 84.34 94.99 79.89 92.41 C77.23 87.89 75.66 83.19 74.01 78.22 C71.95 72.61 69.57 67.24 66.88 61.91 C66.34 60.84 65.81 59.77 65.25 58.67 C64.84 57.86 64.44 57.05 64.01 56.22 C56.95 56.15 49.88 56.09 42.82 56.06 C40.41 56.04 38.01 56.02 35.6 56 C32.15 55.96 28.7 55.94 25.24 55.93 C24.17 55.91 23.09 55.9 21.98 55.88 C20.48 55.88 20.48 55.88 18.94 55.88 C18.06 55.88 17.18 55.87 16.27 55.86 C13.96 56.05 13.96 56.05 12.23 57.53 C10.23 60.31 10.53 63.43 10.5 66.73 C10.48 67.46 10.47 68.19 10.45 68.94 C10.39 71.26 10.36 73.59 10.33 75.91 C10.29 77.49 10.26 79.06 10.22 80.64 C10.14 84.5 10.07 88.36 10.01 92.22 C7.72 92.44 5.43 92.65 3.14 92.85 C1.86 92.96 0.59 93.08 -0.73 93.2 C-1.8 93.21 -2.88 93.21 -3.99 93.22 C-6.57 90.64 -6.23 88.87 -6.26 85.35 C-6.25 84.53 -6.25 83.7 -6.24 82.86 C-6.25 81.99 -6.25 81.13 -6.25 80.24 C-6.26 77.37 -6.26 74.5 -6.25 71.63 C-6.25 69.64 -6.25 67.65 -6.26 65.67 C-6.26 61.5 -6.26 57.33 -6.25 53.16 C-6.23 47.8 -6.24 42.45 -6.25 37.1 C-6.26 32.99 -6.26 28.88 -6.25 24.78 C-6.25 22.8 -6.25 20.83 -6.26 18.86 C-6.26 16.1 -6.26 13.34 -6.24 10.59 C-6.25 9.77 -6.25 8.94 -6.26 8.1 C-6.2 0.35 -6.2 0.35 0 0 Z " fill="#FBFDFD" transform="translate(139.9854736328125,332.7772674560547)"/>
<path d="M0 0 C0.84 -0.01 1.69 -0.01 2.55 -0.02 C3.94 -0.02 3.94 -0.02 5.34 -0.01 C6.32 -0.02 7.29 -0.02 8.29 -0.03 C11.51 -0.04 14.73 -0.04 17.95 -0.04 C20.19 -0.04 22.42 -0.05 24.65 -0.05 C29.33 -0.06 34.02 -0.06 38.7 -0.05 C44.71 -0.05 50.72 -0.07 56.73 -0.09 C61.34 -0.1 65.95 -0.1 70.57 -0.1 C72.78 -0.1 75 -0.11 77.22 -0.12 C80.31 -0.13 83.4 -0.12 86.5 -0.11 C87.42 -0.12 88.34 -0.13 89.29 -0.13 C90.55 -0.12 90.55 -0.12 91.84 -0.11 C92.57 -0.11 93.3 -0.11 94.06 -0.11 C95.86 0.26 95.86 0.26 97.86 3.26 C98 6.03 98.04 8.69 97.98 11.45 C97.97 12.2 97.96 12.95 97.95 13.72 C97.93 15.57 97.89 17.41 97.86 19.26 C96.78 19.27 95.71 19.28 94.6 19.29 C84.49 19.39 74.38 19.49 64.27 19.6 C59.07 19.66 53.87 19.71 48.67 19.76 C43.66 19.81 38.65 19.86 33.64 19.91 C31.72 19.93 29.81 19.95 27.89 19.97 C25.21 19.99 22.54 20.02 19.86 20.06 C19.06 20.06 18.26 20.07 17.44 20.07 C13.85 19.79 13.85 19.79 10.86 21.26 C10.78 23.61 10.77 25.97 10.79 28.32 C10.8 29.61 10.81 30.9 10.82 32.23 C10.83 33.23 10.84 34.23 10.86 35.26 C11.92 35.26 12.98 35.25 14.07 35.25 C24.05 35.21 34.02 35.18 44 35.16 C49.13 35.15 54.26 35.13 59.39 35.11 C64.34 35.09 69.28 35.08 74.23 35.07 C76.12 35.07 78.01 35.06 79.9 35.05 C82.54 35.03 85.19 35.03 87.83 35.03 C88.61 35.03 89.4 35.02 90.21 35.01 C95.63 35.03 95.63 35.03 97.86 37.26 C98.03 39.99 98.09 42.6 98.04 45.32 C98.04 46.44 98.04 46.44 98.04 47.58 C98 53.12 98 53.12 96.86 54.26 C94.21 54.38 91.6 54.44 88.96 54.45 C88.13 54.46 87.3 54.47 86.45 54.48 C84.65 54.49 82.84 54.51 81.04 54.52 C78.19 54.54 75.34 54.57 72.49 54.6 C65.42 54.67 58.34 54.73 51.27 54.79 C45.3 54.84 39.32 54.89 33.35 54.95 C30.53 54.98 27.72 55 24.9 55.02 C23.19 55.04 21.47 55.05 19.76 55.07 C18.97 55.08 18.18 55.08 17.36 55.08 C13.81 54.8 13.81 54.8 10.86 56.26 C10.76 58.43 10.73 60.59 10.73 62.76 C10.73 63.95 10.73 65.13 10.72 66.35 C10.52 69.15 10.52 69.15 11.86 70.26 C14.46 70.37 17.04 70.41 19.65 70.42 C20.47 70.42 21.28 70.43 22.12 70.43 C23.9 70.44 25.68 70.45 27.46 70.46 C30.27 70.47 33.08 70.49 35.89 70.51 C43.88 70.57 51.88 70.63 59.87 70.66 C64.76 70.68 69.64 70.72 74.52 70.76 C76.39 70.78 78.25 70.79 80.12 70.79 C82.72 70.79 85.33 70.82 87.93 70.84 C89.1 70.84 89.1 70.84 90.29 70.84 C92.43 70.87 92.43 70.87 95.86 71.26 C98.38 75.05 98.08 78.07 97.98 82.45 C97.97 83.2 97.96 83.95 97.95 84.72 C97.93 86.57 97.89 88.41 97.86 90.26 C89.17 90.39 80.48 90.52 71.79 90.65 C67.76 90.71 63.72 90.77 59.68 90.83 C43.21 91.09 26.75 91.31 10.28 91.35 C8.82 91.35 7.35 91.36 5.88 91.36 C3.87 91.37 1.86 91.37 -0.15 91.38 C-1.86 91.38 -1.86 91.38 -3.6 91.38 C-6.14 91.26 -6.14 91.26 -7.14 90.26 C-7.25 87.53 -7.3 84.83 -7.3 82.1 C-7.31 81.25 -7.31 80.39 -7.32 79.51 C-7.33 76.67 -7.34 73.83 -7.35 70.98 C-7.35 69.02 -7.36 67.05 -7.36 65.08 C-7.37 60.95 -7.38 56.83 -7.38 52.7 C-7.39 47.4 -7.41 42.1 -7.44 36.79 C-7.46 32.73 -7.47 28.67 -7.47 24.6 C-7.47 22.65 -7.48 20.69 -7.49 18.74 C-7.51 16.01 -7.51 13.28 -7.5 10.55 C-7.51 9.74 -7.52 8.92 -7.53 8.08 C-7.51 5.84 -7.51 5.84 -7.14 2.26 C-4.07 0.21 -3.46 0.01 0 0 Z " fill="#FBFDFD" transform="translate(345.14369201660156,334.7393035888672)"/>
<path d="M0 0 C1.81 -0.35 1.81 -0.35 4.04 -0.32 C5.3 -0.32 5.3 -0.32 6.59 -0.31 C7.99 -0.28 7.99 -0.28 9.41 -0.25 C10.38 -0.24 11.36 -0.23 12.36 -0.22 C15.6 -0.19 18.83 -0.13 22.07 -0.07 C24.31 -0.05 26.55 -0.02 28.79 0.01 C34.69 0.08 40.59 0.17 46.49 0.26 C52.51 0.35 58.53 0.42 64.55 0.5 C76.37 0.65 88.18 0.82 100 1 C101.58 4.16 101.42 7.59 101.62 11.06 C101.7 12.18 101.7 12.18 101.78 13.32 C101.9 15.21 101.95 17.11 102 19 C99.99 21.01 95.93 20.19 93.18 20.21 C92.36 20.22 91.54 20.23 90.69 20.24 C87.97 20.27 85.25 20.29 82.53 20.32 C80.65 20.34 78.76 20.36 76.88 20.38 C71.92 20.43 66.96 20.48 61.99 20.53 C56.93 20.58 51.87 20.64 46.81 20.69 C36.87 20.8 26.94 20.9 17 21 C14.89 25.22 15.39 30.3 15 35 C57.57 35.5 57.57 35.5 101 36 C101.69 40.13 102.1 43.21 102 47.25 C101.85 50.76 101.85 50.76 103 54 C99.87 55.57 96.52 55.17 93.08 55.19 C92.26 55.2 91.44 55.21 90.6 55.21 C88.82 55.23 87.04 55.25 85.26 55.26 C82.45 55.28 79.64 55.31 76.83 55.34 C69.85 55.41 62.87 55.47 55.89 55.53 C49.99 55.58 44.1 55.63 38.2 55.69 C35.42 55.72 32.65 55.74 29.87 55.76 C28.18 55.78 26.48 55.79 24.79 55.81 C23.62 55.82 23.62 55.82 22.43 55.82 C18.92 55.55 18.92 55.55 16 57 C15.67 61.62 15.34 66.24 15 71 C43.05 71.33 71.1 71.66 100 72 C101.92 75.85 101.48 80.57 101.72 84.81 C101.79 87.89 101.79 87.89 103 90 C100.2 91.4 97.86 91.16 94.73 91.19 C93.76 91.2 93.76 91.2 92.78 91.21 C91.37 91.23 89.96 91.25 88.56 91.26 C86.3 91.28 84.04 91.31 81.78 91.34 C77.75 91.39 73.72 91.43 69.7 91.47 C62.6 91.55 55.49 91.63 48.39 91.72 C47.62 91.73 46.85 91.74 46.06 91.75 C30.69 91.94 15.35 92.4 0 93 C-1.61 89.79 -1.2 86.28 -1.24 82.74 C-1.25 81.89 -1.26 81.03 -1.28 80.16 C-1.32 77.32 -1.35 74.49 -1.39 71.66 C-1.41 69.7 -1.44 67.73 -1.46 65.77 C-1.52 61.65 -1.57 57.53 -1.61 53.42 C-1.67 48.13 -1.75 42.85 -1.82 37.56 C-1.88 33.51 -1.93 29.45 -1.98 25.4 C-2 23.45 -2.03 21.5 -2.06 19.55 C-2.1 16.83 -2.13 14.11 -2.15 11.39 C-2.17 10.58 -2.18 9.77 -2.2 8.94 C-2.22 5.08 -2.19 3.29 0 0 Z " fill="#FBFDFD" transform="translate(1045,334)"/>
<path d="M0 0 C2.6 -0.08 5.21 -0.14 7.81 -0.19 C8.55 -0.21 9.29 -0.24 10.05 -0.26 C15.51 -0.34 15.51 -0.34 17.92 1.33 C19.5 3.78 20.72 6.38 22 9 C23 10.33 24 11.67 25 13 C25.86 14.44 26.69 15.9 27.5 17.38 C27.93 18.17 28.37 18.96 28.81 19.77 C29.74 21.52 30.63 23.29 31.5 25.06 C32.75 27.5 34.08 29.71 35.56 32 C37.62 35.22 38.98 38.29 40 42 C40.66 42 41.32 42 42 42 C42.4 42.81 42.8 43.62 43.21 44.45 C43.74 45.52 44.27 46.59 44.81 47.69 C45.6 49.27 45.6 49.27 46.39 50.89 C47.83 53.67 49.36 56.34 51 59 C55 57.67 55.73 55.44 58 52 C58.66 52 59.32 52 60 52 C60 51.01 60 50.02 60 49 C60.66 49 61.32 49 62 49 C62.1 48.48 62.21 47.97 62.31 47.44 C63.24 44.14 64.61 41.13 66 38 C66.66 38 67.32 38 68 38 C68 37.01 68 36.02 68 35 C68.66 35 69.32 35 70 35 C70.19 33.89 70.19 33.89 70.38 32.75 C70.95 30.2 71.74 28.27 73 26 C73.66 26 74.32 26 75 26 C75.21 25.03 75.41 24.06 75.62 23.06 C76.81 18.81 79.11 15.58 81.66 12.02 C83.16 9.94 83.16 9.94 84 7 C84.66 7 85.32 7 86 7 C86.14 6.03 86.29 5.06 86.44 4.06 C87 1 87 1 88 0 C90.7 -0.07 93.37 -0.09 96.06 -0.06 C96.82 -0.06 97.58 -0.05 98.36 -0.05 C100.24 -0.04 102.12 -0.02 104 0 C106.13 4.43 106.13 4.43 105.54 7.02 C104.69 8.68 103.85 10.34 103 12 C102.34 12 101.68 12 101 12 C100.92 12.85 100.84 13.69 100.75 14.56 C100.1 17.54 99.51 19.09 98 21.62 C96.42 24.28 95.48 26.02 95 29 C94.34 29 93.68 29 93 29 C92.88 29.91 92.75 30.81 92.62 31.75 C92.08 34.59 91.43 36.53 90 39 C89.34 39 88.68 39 88 39 C87.67 41.31 87.34 43.62 87 46 C86.34 46 85.68 46 85 46 C84.73 47.22 84.46 48.43 84.19 49.69 C83.31 53.24 82.02 55.93 80 59 C79.67 59.99 79.34 60.98 79 62 C78.34 62 77.68 62 77 62 C76.77 62.89 76.55 63.77 76.31 64.69 C75.22 68.47 73.91 72.17 72.56 75.88 C72.15 77.01 71.74 78.14 71.32 79.3 C70.88 80.19 70.45 81.08 70 82 C68.51 82.5 68.51 82.5 67 83 C67 84.32 67 85.64 67 87 C66.34 87 65.68 87 65 87 C64.34 88.65 63.68 90.3 63 92 C59.71 92.03 56.42 92.05 53.12 92.06 C52.19 92.07 51.25 92.08 50.29 92.09 C48.94 92.09 48.94 92.09 47.57 92.1 C46.33 92.11 46.33 92.11 45.06 92.11 C43 92 43 92 41 91 C39.95 89.03 38.96 87.02 38 85 C37.46 83.94 36.91 82.87 36.35 81.77 C33.59 76.35 30.93 70.98 28.69 65.31 C26.09 58.85 22.8 52.78 19.48 46.67 C17.23 42.5 15.42 38.54 14 34 C13.18 32.27 12.32 30.57 11.44 28.88 C8.51 23.1 5.75 17.26 3.06 11.38 C2.44 10.04 2.44 10.04 1.81 8.68 C1.43 7.84 1.05 7.01 0.66 6.15 C0.14 5.02 0.14 5.02 -0.38 3.87 C-1 2 -1 2 0 0 Z " fill="#FBFDFD" transform="translate(837,338)"/>
<path d="M0 0 C15.07 -1.53 15.07 -1.53 19.69 2.12 C22.23 5.77 24 8.49 24 13 C24.66 13.33 25.32 13.66 26 14 C29.23 17.79 32 21.94 32 27 C32.66 27 33.32 27 34 27 C34.5 29.48 34.5 29.48 35 32 C35.66 32 36.32 32 37 32 C37.39 32.81 37.78 33.62 38.18 34.46 C40.74 39.44 43.67 44.2 46.59 48.99 C47.03 49.72 47.47 50.45 47.92 51.2 C48.32 51.86 48.72 52.52 49.13 53.19 C50 55 50 55 50 58 C51.65 58.66 53.3 59.32 55 60 C55.34 59.31 55.68 58.63 56.02 57.92 C56.69 56.57 56.69 56.57 57.38 55.19 C57.82 54.29 58.26 53.4 58.71 52.48 C60 50 60 50 62 47 C62.66 47 63.32 47 64 47 C64.1 46.28 64.21 45.56 64.31 44.81 C65.07 41.72 66.16 39.58 68 37 C68.66 37 69.32 37 70 37 C70.1 36.37 70.2 35.75 70.3 35.1 C70.45 34.28 70.6 33.47 70.75 32.62 C70.96 31.41 70.96 31.41 71.17 30.16 C72.24 27.38 73.38 27.23 76 26 C77.3 22.45 77.3 22.45 78 19 C78.66 19 79.32 19 80 19 C80.1 18.46 80.21 17.93 80.31 17.38 C81.67 12.68 84.03 8.83 87 5 C87.56 3.72 87.56 3.72 88.12 2.41 C90 0 90 0 93.47 -0.59 C94.81 -0.59 96.16 -0.56 97.5 -0.5 C98.18 -0.5 98.85 -0.51 99.55 -0.51 C102.58 -0.45 104.53 -0.36 106.97 1.53 C107.31 2.02 107.65 2.5 108 3 C107.57 3.82 107.13 4.65 106.69 5.5 C104.87 9.28 103.43 13.06 102 17 C101.34 17 100.68 17 100 17 C99.82 17.57 99.64 18.14 99.45 18.72 C97.86 23.61 96.1 28.31 94 33 C93.34 33 92.68 33 92 33 C91.67 34.98 91.34 36.96 91 39 C90.34 39 89.68 39 89 39 C88.9 39.67 88.8 40.34 88.7 41.03 C87.83 44.74 86.37 48.1 84.81 51.56 C84.5 52.26 84.19 52.97 83.87 53.69 C81.49 59.02 78.94 64.26 76.26 69.45 C75.04 71.93 73.99 74.42 73 77 C72.34 77 71.68 77 71 77 C70.54 78.92 70.54 78.92 70.06 80.88 C69.52 83.1 69.03 84.95 68 87 C67.34 87 66.68 87 66 87 C65.67 88.98 65.34 90.96 65 93 C58.4 93 51.8 93 45 93 C45 92.34 45 91.68 45 91 C44.34 91 43.68 91 43 91 C37.76 82.38 33.36 73.63 29.3 64.41 C26.09 57.14 22.62 50.07 19 43 C16.46 38 13.98 33 11.69 27.88 C8.01 19.68 4.05 11.51 -0.3 3.65 C-0.53 3.11 -0.76 2.56 -1 2 C-0.67 1.34 -0.34 0.68 0 0 Z " fill="#FAFCFC" transform="translate(543,338)"/>
<path d="M0 0 C364.32 0 728.64 0 1104 0 C1104.33 0.99 1104.66 1.98 1105 3 C557.53 3.5 557.53 3.5 -1 4 C-0.67 2.68 -0.34 1.36 0 0 Z " fill="#7B7D7C" transform="translate(89,212)"/>
<path d="M0 0 C3 2 3 2 3.62 4.01 C3.78 5.23 3.78 5.23 3.95 6.48 C4.08 7.39 4.2 8.3 4.33 9.24 C4.45 10.21 4.57 11.19 4.69 12.19 C4.82 13.17 4.94 14.16 5.08 15.18 C5.94 22.26 6.24 29.17 6.01 36.3 C5.8 38.97 5.8 38.97 7 41 C7.15 42.34 7.24 43.69 7.3 45.04 C7.34 45.88 7.38 46.72 7.42 47.58 C7.46 48.48 7.5 49.39 7.54 50.33 C7.58 51.27 7.62 52.21 7.67 53.18 C7.76 55.18 7.84 57.18 7.93 59.18 C8.06 62.2 8.2 65.21 8.34 68.23 C8.76 77.68 9.11 87.08 8.94 96.54 C8.83 99.01 8.83 99.01 10 101 C10.34 102.91 10.65 104.83 10.94 106.75 C11.46 110.05 11.97 112.92 13.12 116.06 C14.68 121.3 14.74 127.34 13.27 132.61 C12.71 135.08 12.71 135.08 14.43 136.91 C15.43 137.76 15.43 137.76 16.44 138.62 C18.43 140.35 18.43 140.35 20 142 C20 142.99 20 143.98 20 145 C20.66 145.33 21.32 145.66 22 146 C23.46 150.95 23.63 156.11 22 161 C21.34 161 20.68 161 20 161 C19.79 161.56 19.59 162.11 19.38 162.69 C18 165 18 165 14.88 167.25 C11.9 169.58 11.9 169.58 11.57 171.96 C11.56 175.3 11.64 178.92 13 182 C13.99 182.33 14.98 182.66 16 183 C16 184.98 16 186.96 16 189 C15.01 189 14.02 189 13 189 C13 188.34 13 187.68 13 187 C12.42 186.96 11.85 186.92 11.25 186.88 C7.78 185.53 6.8 183.18 5 180 C3.58 176.56 2.87 173.36 2.44 169.69 C2.41 166.2 2.41 166.2 1 165 C0.93 163.31 0.92 161.62 0.94 159.94 C0.95 159.02 0.96 158.1 0.96 157.15 C0.98 156.44 0.99 155.73 1 155 C0.34 154.67 -0.32 154.34 -1 154 C-1.5 153.01 -1.5 153.01 -2 152 C-2.66 152 -3.32 152 -4 152 C-4 152.99 -4 153.98 -4 155 C-4.8 155.31 -5.61 155.62 -6.44 155.94 C-8.89 156.76 -8.89 156.76 -10 158 C-11.69 158.07 -13.38 158.08 -15.06 158.06 C-15.98 158.05 -16.9 158.04 -17.85 158.04 C-18.56 158.02 -19.27 158.01 -20 158 C-20 157.34 -20 156.68 -20 156 C-20.58 155.96 -21.15 155.92 -21.75 155.88 C-25.29 154.5 -26.28 152.31 -28 149 C-28.65 143.81 -27.83 140.4 -25 136 C-24.01 135.67 -23.02 135.34 -22 135 C-22 134.34 -22 133.68 -22 133 C-21.34 133 -20.68 133 -20 133 C-20 132.01 -20 131.02 -20 130 C-19.01 130 -18.02 130 -17 130 C-16.75 129.44 -16.5 128.89 -16.25 128.31 C-14.77 125.58 -13.07 123.32 -11 121 C-10.34 121 -9.68 121 -9 121 C-8.78 119.92 -8.78 119.92 -8.56 118.81 C-8.22 117.1 -7.88 115.39 -7.53 113.68 C-5.3 102.39 -4.59 91.41 -4.38 79.94 C-4.34 78.23 -4.3 76.52 -4.26 74.81 C-3.97 61.64 -3.92 48.48 -4.04 35.32 C-4.09 28.15 -4.01 21 -3.69 13.84 C-3.67 13.14 -3.64 12.44 -3.62 11.73 C-3.37 7.17 -2.28 3.94 0 0 Z " fill="#F9FBFB" transform="translate(742,341)"/>
<path d="M0 0 C369.27 0 738.54 0 1119 0 C1119.66 1.32 1120.32 2.64 1121 4 C1120.01 3.67 1119.02 3.34 1118 3 C1115.48 2.9 1112.98 2.86 1110.46 2.87 C1109.68 2.87 1108.9 2.87 1108.09 2.86 C1105.45 2.86 1102.81 2.86 1100.17 2.86 C1098.26 2.86 1096.35 2.86 1094.44 2.85 C1089.15 2.84 1083.86 2.84 1078.57 2.84 C1072.83 2.84 1067.09 2.83 1061.35 2.83 C1051.28 2.82 1041.21 2.81 1031.14 2.8 C1020.33 2.8 1009.51 2.79 998.7 2.78 C998.02 2.78 997.34 2.78 996.64 2.78 C993.16 2.78 989.68 2.77 986.21 2.77 C961.01 2.74 935.82 2.73 910.63 2.71 C885.68 2.69 860.73 2.67 835.78 2.65 C835 2.65 834.23 2.65 833.43 2.65 C826.36 2.64 819.28 2.64 812.21 2.63 C794.62 2.62 777.04 2.6 759.46 2.59 C758.25 2.59 758.25 2.59 757.03 2.59 C718.06 2.55 679.08 2.53 640.11 2.5 C626.59 2.49 613.06 2.48 599.53 2.47 C598.69 2.47 597.85 2.47 596.99 2.47 C558 2.44 519.01 2.41 480.03 2.37 C477.5 2.37 474.97 2.37 472.44 2.37 C455.67 2.35 438.9 2.34 422.13 2.33 C388.76 2.3 355.39 2.27 322.02 2.25 C320.43 2.24 318.84 2.24 317.25 2.24 C245.69 2.18 174.14 2.13 102.58 2.08 C101.58 2.08 101.58 2.08 100.55 2.07 C67.03 2.05 33.52 2.02 0 2 C0 1.34 0 0.68 0 0 Z " fill="#7B7D7C" transform="translate(82,196)"/>
<path d="M0 0 C1.04 -0 1.04 -0 2.1 -0 C4.39 0 6.69 0.01 8.98 0.02 C10.57 0.02 12.16 0.02 13.75 0.02 C17.93 0.02 22.12 0.03 26.31 0.04 C30.58 0.06 34.85 0.06 39.11 0.06 C47.49 0.08 55.88 0.09 64.26 0.11 C65.89 3.38 65.4 6.97 65.38 10.55 C65.38 11.33 65.39 12.1 65.39 12.9 C65.39 16.22 65.31 18.94 64.26 22.11 C54.89 22.14 45.51 22.15 36.14 22.17 C31.79 22.17 27.44 22.18 23.09 22.19 C18.9 22.2 14.7 22.21 10.51 22.21 C8.9 22.21 7.3 22.21 5.7 22.22 C3.46 22.23 1.22 22.23 -1.02 22.23 C-2.3 22.23 -3.58 22.23 -4.89 22.23 C-7.74 22.11 -7.74 22.11 -8.74 21.11 C-8.83 19.62 -8.85 18.13 -8.84 16.64 C-8.84 15.74 -8.84 14.84 -8.83 13.92 C-8.82 12.97 -8.82 12.03 -8.81 11.05 C-8.8 10.1 -8.8 9.15 -8.79 8.17 C-8.78 5.82 -8.77 3.47 -8.74 1.11 C-5.82 -0.35 -3.26 -0.01 0 0 Z " fill="#000100" transform="translate(158.74462890625,352.886474609375)"/>
<path d="M0 0 C4.81 3.4 8.56 8.45 10.25 14.12 C11.06 21.13 11.01 27.5 7.56 33.81 C4.01 37.7 0.22 41.51 -5.16 42.12 C-12.33 42.4 -16.83 41.85 -22.63 37.52 C-28.05 32.4 -29.07 27.13 -29.44 19.81 C-28.75 12.47 -26.82 7.14 -21.35 2.12 C-14.93 -2.26 -7.22 -2.49 0 0 Z " fill="#FBFDFD" transform="translate(688.4375,551.1875)"/>
<path d="M0 0 C0.78 -0.04 1.56 -0.08 2.37 -0.12 C4.56 0.44 4.56 0.44 6.18 2.35 C8.06 6.54 9.15 10.8 10.25 15.25 C10.47 16.13 10.7 17.02 10.93 17.93 C11.48 20.1 12.03 22.27 12.56 24.44 C14.74 23.64 14.74 23.64 15.2 21.54 C15.38 20.72 15.56 19.91 15.75 19.07 C16.05 17.74 16.05 17.74 16.37 16.39 C16.79 14.51 17.2 12.64 17.62 10.76 C17.93 9.43 17.93 9.43 18.25 8.07 C18.43 7.25 18.61 6.44 18.79 5.6 C19.66 3.17 20.55 2.03 22.56 0.44 C24.79 0.11 24.79 0.11 27.19 0.19 C27.98 0.2 28.78 0.22 29.6 0.23 C31.56 0.44 31.56 0.44 32.56 1.44 C32.65 4.54 32.68 7.62 32.66 10.72 C32.66 11.65 32.66 12.58 32.66 13.54 C32.65 16.53 32.64 19.51 32.62 22.5 C32.62 24.52 32.62 26.54 32.61 28.56 C32.6 33.52 32.58 38.48 32.56 43.44 C30.19 43.56 30.19 43.56 27.56 43.44 C25.56 41.44 25.56 41.44 25.34 38.73 C25.35 37.61 25.36 36.49 25.37 35.34 C25.37 34.12 25.38 32.91 25.39 31.66 C25.4 30.39 25.42 29.12 25.44 27.81 C25.45 26.53 25.46 25.25 25.46 23.94 C25.49 20.77 25.52 17.6 25.56 14.44 C24.9 14.44 24.24 14.44 23.56 14.44 C23.54 15.05 23.51 15.65 23.48 16.28 C23.09 22.36 22.08 28.11 20.62 34 C20.46 34.7 20.29 35.41 20.11 36.13 C18.81 41.19 18.81 41.19 16.56 43.44 C12.83 43.82 11.79 43.59 8.56 41.44 C7.79 39.52 7.79 39.52 7.25 37.18 C7.04 36.33 6.83 35.47 6.62 34.59 C6.41 33.7 6.21 32.8 6 31.88 C5.79 31.01 5.58 30.14 5.37 29.24 C4.04 23.65 2.8 18.05 1.56 12.44 C1.23 13.43 0.9 14.42 0.56 15.44 C1.22 15.44 1.88 15.44 2.56 15.44 C2.42 19.92 2.28 24.4 2.12 28.88 C2.09 30.15 2.05 31.43 2.01 32.75 C1.96 33.97 1.92 35.18 1.88 36.43 C1.82 38.12 1.82 38.12 1.77 39.85 C1.56 42.44 1.56 42.44 0.56 43.44 C-1.88 43.62 -1.88 43.62 -4.44 43.44 C-7.07 40.81 -6.69 38.9 -6.72 35.32 C-6.71 34.48 -6.71 33.64 -6.7 32.78 C-6.71 31.92 -6.71 31.07 -6.71 30.18 C-6.71 28.37 -6.71 26.55 -6.7 24.73 C-6.69 21.95 -6.7 19.16 -6.71 16.38 C-6.71 14.62 -6.71 12.86 -6.7 11.09 C-6.71 10.26 -6.71 9.42 -6.72 8.56 C-6.67 2.63 -6.24 0.17 0 0 Z " fill="#FAFCFC" transform="translate(394.4375,549.5625)"/>
<path d="M0 0 C0.99 0 1.98 0 3 0 C3 117.48 3 234.96 3 356 C2.01 356 1.02 356 0 356 C0 238.52 0 121.04 0 0 Z " fill="#7A7C7B" transform="translate(1206,206)"/>
<path d="M0 0 C2.53 0.5 2.53 0.5 4.39 2.58 C4.95 3.53 5.51 4.48 6.09 5.46 C6.7 6.49 7.32 7.52 7.95 8.58 C8.58 9.66 9.2 10.75 9.85 11.87 C10.49 12.95 11.14 14.03 11.8 15.15 C16.53 23.16 16.53 23.16 16.53 25.5 C17.19 25.5 17.85 25.5 18.53 25.5 C18.86 17.58 19.19 9.66 19.53 1.5 C21.51 1.17 23.49 0.84 25.53 0.5 C28.2 3.17 27.77 5.17 27.79 8.8 C27.78 9.66 27.77 10.52 27.76 11.41 C27.76 12.29 27.76 13.17 27.76 14.08 C27.76 15.95 27.75 17.82 27.74 19.68 C27.72 22.55 27.72 25.42 27.72 28.29 C27.72 30.1 27.71 31.91 27.7 33.72 C27.7 34.58 27.7 35.45 27.7 36.34 C27.65 42.38 27.65 42.38 26.53 43.5 C23.78 43.87 23.78 43.87 20.53 43.5 C15.78 39.54 12.87 34.58 9.72 29.31 C9.22 28.49 8.72 27.67 8.2 26.83 C4.53 20.77 4.53 20.77 4.53 18.5 C3.87 18.5 3.21 18.5 2.53 18.5 C2.53 26.75 2.53 35 2.53 43.5 C0.55 43.5 -1.43 43.5 -3.47 43.5 C-6.06 40.9 -5.72 39.09 -5.77 35.55 C-5.77 34.74 -5.77 33.93 -5.77 33.1 C-5.77 32.26 -5.77 31.43 -5.78 30.57 C-5.79 28.81 -5.79 27.04 -5.78 25.28 C-5.78 22.57 -5.8 19.87 -5.83 17.17 C-5.83 15.46 -5.83 13.75 -5.83 12.03 C-5.84 11.22 -5.85 10.41 -5.86 9.58 C-5.81 3.93 -5.81 3.93 -4.1 1.79 C-2.47 0.5 -2.47 0.5 0 0 Z " fill="#FAFCFC" transform="translate(493.465576171875,549.50244140625)"/>
<path d="M0 0 C2.53 0.51 2.53 0.51 4.35 2.7 C4.9 3.7 5.45 4.7 6.01 5.73 C6.62 6.81 7.22 7.88 7.85 9 C8.47 10.14 9.08 11.28 9.72 12.45 C10.96 14.69 12.2 16.93 13.45 19.17 C13.99 20.17 14.54 21.17 15.1 22.2 C16.32 24.63 16.32 24.63 18.53 25.51 C18.86 17.59 19.19 9.67 19.53 1.51 C21.51 1.18 23.49 0.85 25.53 0.51 C25.53 1.17 25.53 1.83 25.53 2.51 C26.19 2.51 26.85 2.51 27.53 2.51 C27.55 8.19 27.57 13.87 27.58 19.55 C27.59 21.48 27.6 23.41 27.61 25.35 C27.62 28.12 27.62 30.89 27.63 33.67 C27.63 34.54 27.64 35.41 27.64 36.3 C27.64 38.37 27.59 40.44 27.53 42.51 C26.53 43.51 26.53 43.51 23.78 43.83 C19.65 43.43 18.52 42.38 15.53 39.51 C13.79 36.97 12.34 34.3 10.91 31.58 C10.14 30.17 9.38 28.77 8.62 27.36 C8.29 26.74 7.96 26.12 7.62 25.49 C6.32 23.12 4.93 20.82 3.53 18.51 C3.5 19.24 3.48 19.96 3.45 20.7 C3.34 23.95 3.22 27.2 3.09 30.45 C3.05 31.59 3.01 32.72 2.97 33.89 C2.93 34.97 2.89 36.05 2.85 37.17 C2.79 38.67 2.79 38.67 2.74 40.2 C2.53 42.51 2.53 42.51 1.53 43.51 C-0.91 43.7 -0.91 43.7 -3.47 43.51 C-6.06 40.92 -5.73 39.11 -5.77 35.57 C-5.77 34.76 -5.77 33.95 -5.77 33.11 C-5.78 32.28 -5.78 31.44 -5.78 30.59 C-5.79 28.82 -5.79 27.06 -5.79 25.29 C-5.78 22.59 -5.81 19.89 -5.83 17.19 C-5.83 15.47 -5.83 13.76 -5.83 12.05 C-5.84 11.24 -5.85 10.43 -5.86 9.6 C-5.81 3.94 -5.81 3.94 -4.1 1.81 C-2.47 0.51 -2.47 0.51 0 0 Z " fill="#FBFDFD" transform="translate(766.469970703125,549.486572265625)"/>
<path d="M0 0 C1.16 0.01 2.32 0.01 3.51 0.02 C5.33 0.05 5.33 0.05 7.18 0.08 C9.01 0.09 9.01 0.09 10.87 0.09 C19.9 0.17 19.9 0.17 21.05 1.33 C21.05 3.64 21.05 5.95 21.05 8.33 C14.12 8.33 7.19 8.33 0.05 8.33 C0.38 10.97 0.71 13.61 1.05 16.33 C2.26 16.38 3.46 16.43 4.7 16.48 C6.28 16.55 7.85 16.63 9.43 16.7 C10.22 16.73 11.02 16.76 11.84 16.8 C17.83 17.1 17.83 17.1 20.05 19.33 C20.05 20.98 20.05 22.63 20.05 24.33 C13.45 24.33 6.85 24.33 0.05 24.33 C0.38 27.63 0.71 30.93 1.05 34.33 C7.65 34.66 14.25 34.99 21.05 35.33 C22.41 38.04 22.12 40.34 22.05 43.33 C17.96 43.38 13.87 43.41 9.77 43.44 C8.38 43.45 6.99 43.46 5.6 43.48 C3.6 43.5 1.59 43.51 -0.41 43.52 C-1.61 43.53 -2.82 43.54 -4.06 43.56 C-6.95 43.33 -6.95 43.33 -8.95 41.33 C-9.16 38.49 -9.25 35.76 -9.25 32.93 C-9.25 32.09 -9.25 31.26 -9.26 30.4 C-9.26 28.64 -9.27 26.87 -9.26 25.11 C-9.26 22.4 -9.28 19.7 -9.31 17 C-9.31 15.29 -9.31 13.58 -9.31 11.86 C-9.32 11.05 -9.33 10.24 -9.34 9.41 C-9.29 3.76 -9.29 3.76 -7.59 1.61 C-5.12 -0.32 -3.1 -0.03 0 0 Z " fill="#FBFDFD" transform="translate(869.9453125,549.671875)"/>
<path d="M0 0 C1.54 -0.04 1.54 -0.04 3.12 -0.08 C7.8 0.43 10.96 2.62 13.94 6.19 C16.12 9.25 16.12 9.25 16.12 13.25 C13.44 14.06 13.44 14.06 10.12 14.25 C8.44 12.61 6.77 10.94 5.12 9.25 C0.89 8 -1.43 8.13 -5.69 9.31 C-8.99 10.96 -8.99 10.96 -10.31 13.81 C-11.28 19.7 -12.34 27.05 -8.88 32.25 C-4.52 35.19 -1.07 35.73 4.12 35.25 C6.48 34.37 6.48 34.37 8.12 33.25 C7.63 30.77 7.63 30.77 7.12 28.25 C4.82 27.59 2.5 26.93 0.12 26.25 C0.12 24.27 0.12 22.29 0.12 20.25 C2.77 20.22 5.42 20.2 8.06 20.19 C8.82 20.18 9.57 20.17 10.35 20.16 C12.27 20.15 14.2 20.2 16.12 20.25 C18.17 22.3 17.45 26.26 17.5 29.06 C17.56 30.15 17.56 30.15 17.61 31.26 C17.68 35.04 17.52 36.82 14.91 39.64 C8.07 43.6 1.98 44.31 -5.88 43.25 C-11.28 41.06 -15.71 38.23 -18.88 33.25 C-21.66 25.93 -21.26 18.4 -18.81 11.06 C-13.93 3.97 -8.66 0.13 0 0 Z " fill="#FBFDFD" transform="translate(828.875,549.75)"/>
<path d="M0 0 C1.21 0 2.42 0.01 3.67 0.01 C4.94 0.02 6.21 0.03 7.52 0.04 C8.8 0.04 10.08 0.04 11.4 0.05 C14.57 0.06 17.73 0.08 20.9 0.1 C21.9 2.1 21.9 2.1 21.9 8.1 C14.97 8.1 8.04 8.1 0.9 8.1 C0.9 10.41 0.9 12.72 0.9 15.1 C3.19 17.38 9.47 16.51 12.73 16.62 C18.69 16.88 18.69 16.88 20.9 19.1 C20.57 20.75 20.24 22.4 19.9 24.1 C13.63 24.1 7.36 24.1 0.9 24.1 C0.9 27.4 0.9 30.7 0.9 34.1 C2.32 34.15 3.74 34.2 5.2 34.25 C7.06 34.32 8.92 34.4 10.77 34.47 C11.71 34.5 12.65 34.53 13.61 34.57 C14.51 34.61 15.41 34.64 16.33 34.68 C17.16 34.72 17.98 34.75 18.84 34.78 C20.9 35.1 20.9 35.1 22.9 37.1 C23.09 39.66 23.09 39.66 22.9 42.1 C20.14 44.85 11.68 43.28 7.96 43.29 C6.65 43.3 5.33 43.31 3.98 43.32 C2.73 43.32 1.47 43.33 0.18 43.33 C-1.55 43.33 -1.55 43.33 -3.32 43.34 C-6.1 43.1 -6.1 43.1 -8.1 41.1 C-8.28 38.08 -8.33 35.16 -8.3 32.15 C-8.29 31.27 -8.29 30.38 -8.29 29.47 C-8.28 26.64 -8.25 23.81 -8.23 20.97 C-8.22 19.05 -8.21 17.14 -8.2 15.22 C-8.18 10.51 -8.14 5.8 -8.1 1.1 C-5.34 -0.29 -3.09 -0.01 0 0 Z " fill="#FBFDFD" transform="translate(451.1015625,549.90234375)"/>
<path d="M0 0 C3.88 2.98 5.41 6.67 6.98 11.13 C5.98 12.13 5.98 12.13 3.23 12.5 C-0.02 12.13 -0.02 12.13 -2.27 9.63 C-5.43 6.75 -6.22 6.79 -10.33 6.82 C-11.89 6.9 -13.46 6.99 -15.02 7.13 C-14.92 9.58 -14.92 9.58 -14.02 12.13 C-11.7 13.5 -11.7 13.5 -8.83 14.25 C-7.83 14.58 -6.84 14.91 -5.81 15.24 C-4.89 15.53 -3.97 15.83 -3.02 16.13 C2.36 18.22 5.48 20.95 7.98 26.13 C8.67 30.48 8.33 32.47 6.3 36.38 C3.21 40.05 0.71 41.89 -4.1 42.56 C-10.99 42.57 -15.47 42.35 -21.02 38.13 C-21.63 37.7 -22.25 37.26 -22.89 36.82 C-24.68 34.13 -24.72 31.29 -25.02 28.13 C-21.55 27.63 -21.55 27.63 -18.02 27.13 C-17.6 27.91 -17.19 28.7 -16.77 29.5 C-14.9 32.31 -14.18 33.16 -11.02 34.13 C-6.21 34.68 -6.21 34.68 -2.08 32.63 C-1.73 32.13 -1.38 31.64 -1.02 31.13 C-1.52 28.65 -1.52 28.65 -3.02 26.13 C-6.11 24.61 -6.11 24.61 -9.77 23.63 C-15.14 21.9 -19.29 20.49 -23.02 16.13 C-24.11 12.83 -24.21 10.93 -23.39 7.57 C-18.67 -0.8 -9 -3.89 0 0 Z " fill="#FBFDFD" transform="translate(581.015625,550.87109375)"/>
<path d="M0 0 C1.87 1.87 1.15 5.06 1.18 7.55 C1.2 8.9 1.22 10.26 1.25 11.61 C1.28 13.74 1.31 15.88 1.33 18.01 C1.34 20.07 1.38 22.12 1.43 24.18 C1.44 25.41 1.45 26.65 1.47 27.92 C1.72 31.05 1.72 31.05 3.81 32.9 C7.01 34.51 9.48 34.38 13 34 C14.82 32.98 14.82 32.98 16 31 C16.51 27.71 16.51 27.71 16.51 23.93 C16.53 23.24 16.55 22.56 16.57 21.85 C16.62 19.67 16.65 17.49 16.69 15.31 C16.72 13.83 16.76 12.35 16.79 10.87 C16.88 7.25 16.94 3.62 17 0 C19.88 -0.62 19.88 -0.62 23 -1 C26.47 2.47 25.34 7.56 25.37 12.26 C25.37 13.36 25.37 13.36 25.37 14.49 C25.37 16.73 25.41 18.96 25.45 21.2 C25.46 22.62 25.46 24.05 25.46 25.48 C25.47 26.78 25.48 28.08 25.49 29.41 C24.82 34.36 22.64 37.35 19.17 40.84 C14.27 43.46 8.34 42.74 3 42 C-0.49 40.5 -3.34 38.71 -6 36 C-7.19 32.43 -7.12 29.2 -7.1 25.49 C-7.1 24.76 -7.09 24.03 -7.09 23.28 C-7.09 20.96 -7.08 18.64 -7.06 16.31 C-7.06 14.74 -7.05 13.16 -7.05 11.58 C-7.04 7.72 -7.02 3.86 -7 0 C-4.32 -1.34 -2.85 -0.73 0 0 Z " fill="#FBFDFD" transform="translate(720,551)"/>
<path d="M0 0 C3.74 3.42 4.8 5.37 5.41 10.4 C5.67 21 5.67 21 2 26 C-1.44 28.58 -4.83 28.49 -9 28 C-12.59 26.28 -15.42 24.44 -16.94 20.69 C-16.96 19.8 -16.98 18.91 -17 18 C-17.08 16.74 -17.16 15.48 -17.25 14.19 C-17.16 9.76 -16.44 5.76 -14 2 C-9.2 -1.05 -5.43 -1.81 0 0 Z " fill="#000100" transform="translate(685,558)"/>
<path d="M0 0 C2 -0.04 4 -0.04 6 0 C7.92 1.92 7.25 5.47 7.32 8.1 C7.34 8.81 7.36 9.52 7.38 10.25 C7.44 12.52 7.5 14.79 7.56 17.06 C7.61 18.6 7.65 20.14 7.69 21.67 C7.8 25.45 7.9 29.22 8 33 C9.28 33.05 10.55 33.1 11.87 33.15 C13.54 33.22 15.21 33.3 16.88 33.38 C18.14 33.42 18.14 33.42 19.43 33.47 C20.23 33.51 21.04 33.55 21.87 33.59 C22.61 33.62 23.35 33.65 24.12 33.68 C26 34 26 34 28 36 C28.19 38.56 28.19 38.56 28 41 C25.35 43.65 17.63 42.19 14.06 42.19 C12.84 42.2 11.62 42.21 10.37 42.22 C8.63 42.23 8.63 42.23 6.85 42.23 C5.24 42.24 5.24 42.24 3.6 42.24 C1 42 1 42 -1 40 C-1.19 37.15 -1.26 34.41 -1.23 31.56 C-1.23 30.73 -1.23 29.89 -1.23 29.03 C-1.23 27.26 -1.22 25.49 -1.21 23.72 C-1.19 21.01 -1.19 18.3 -1.19 15.59 C-1.18 13.87 -1.17 12.15 -1.17 10.44 C-1.17 9.62 -1.17 8.81 -1.16 7.97 C-1.12 2.23 -1.12 2.23 0 0 Z " fill="#FBFDFD" transform="translate(620,551)"/>
<path d="M0 0 C13.39 -0.05 26.79 -0.08 40.18 -0.1 C46.4 -0.11 52.62 -0.13 58.84 -0.15 C64.84 -0.17 70.84 -0.18 76.84 -0.19 C79.13 -0.19 81.42 -0.2 83.71 -0.21 C86.91 -0.23 90.12 -0.23 93.32 -0.23 C94.27 -0.23 95.23 -0.24 96.21 -0.25 C97.52 -0.24 97.52 -0.24 98.85 -0.24 C99.61 -0.24 100.36 -0.24 101.15 -0.25 C103 0 103 0 105 2 C103.18 3.82 100.31 3.17 97.86 3.21 C97.22 3.22 96.58 3.23 95.91 3.24 C93.76 3.27 91.61 3.29 89.46 3.32 C87.94 3.34 86.43 3.36 84.91 3.38 C81.71 3.42 78.5 3.46 75.29 3.5 C71.28 3.55 67.27 3.6 63.26 3.66 C42.84 3.95 22.42 4.06 2 4 C1.34 2.68 0.68 1.36 0 0 Z " fill="#7B7D7C" transform="translate(338,425)"/>
<path d="M0 0 C-1 3 -1 3 -3 4 C-5.13 4.12 -7.26 4.18 -9.39 4.21 C-10.05 4.22 -10.71 4.23 -11.38 4.24 C-13.58 4.27 -15.77 4.29 -17.96 4.32 C-19.51 4.34 -21.05 4.36 -22.59 4.38 C-25.85 4.42 -29.11 4.46 -32.37 4.5 C-36.46 4.55 -40.55 4.6 -44.64 4.66 C-64.1 4.93 -83.54 5.07 -103 5 C-103 4.01 -103 3.02 -103 2 C-81.76 1.15 -60.53 0.73 -39.27 0.47 C-35.21 0.42 -31.15 0.36 -27.09 0.31 C-21.19 0.23 -15.29 0.15 -9.4 0.08 C-8.23 0.06 -7.06 0.05 -5.86 0.03 C-3.91 0.01 -1.95 0 0 0 Z " fill="#797B7A" transform="translate(1149,424)"/>
<path d="M0 0 C1.65 -0 1.65 -0 3.33 -0 C5.65 -0 7.97 0.01 10.3 0.03 C13.86 0.06 17.42 0.05 20.99 0.04 C23.24 0.04 25.5 0.05 27.75 0.06 C28.82 0.06 29.89 0.06 30.99 0.05 C31.98 0.07 32.97 0.08 33.99 0.09 C34.86 0.1 35.73 0.1 36.63 0.11 C37.33 0.24 38.02 0.36 38.74 0.5 C39.4 1.49 40.06 2.48 40.74 3.5 C23.25 3.5 5.76 3.5 -12.26 3.5 C-12.26 14.72 -12.26 25.94 -12.26 37.5 C-12.92 37.5 -13.58 37.5 -14.26 37.5 C-16.45 33.1 -15.53 27.2 -15.55 22.32 C-15.57 20.14 -15.61 17.95 -15.66 15.77 C-15.67 14.38 -15.68 12.99 -15.68 11.6 C-15.7 10.33 -15.71 9.07 -15.73 7.76 C-15.26 4.5 -15.26 4.5 -13.93 2.08 C-9.54 -0.53 -5.02 -0.05 0 0 Z " fill="#777978" transform="translate(165.2578125,387.50390625)"/>
<path d="M0 0 C10.77 -0.05 21.54 -0.08 32.31 -0.1 C37.31 -0.11 42.31 -0.13 47.31 -0.15 C52.14 -0.17 56.96 -0.18 61.78 -0.19 C63.63 -0.19 65.47 -0.2 67.31 -0.21 C69.89 -0.23 72.46 -0.23 75.04 -0.23 C76.19 -0.24 76.19 -0.24 77.36 -0.25 C81.12 -0.23 82.79 -0.14 86 2 C84.22 3.78 81.85 3.12 79.48 3.12 C78.29 3.12 78.29 3.12 77.08 3.11 C76.25 3.11 75.43 3.11 74.57 3.11 C71.82 3.11 69.06 3.11 66.31 3.1 C64.4 3.1 62.5 3.09 60.6 3.09 C55.57 3.09 50.55 3.08 45.53 3.07 C40.41 3.06 35.29 3.05 30.17 3.05 C20.11 3.04 10.06 3.02 0 3 C0 2.01 0 1.02 0 0 Z " fill="#7B7D7C" transform="translate(357,354)"/>
<path d="M0 0 C10.79 -0.02 21.57 -0.04 32.36 -0.05 C37.37 -0.06 42.38 -0.06 47.39 -0.08 C52.22 -0.09 57.05 -0.09 61.88 -0.09 C63.73 -0.1 65.57 -0.1 67.42 -0.11 C70 -0.11 72.57 -0.11 75.15 -0.11 C76.31 -0.12 76.31 -0.12 77.48 -0.12 C82.77 -0.11 82.77 -0.11 85 1 C85 1.66 85 2.32 85 3 C56.95 3 28.9 3 0 3 C0 2.01 0 1.02 0 0 Z " fill="#7B7D7C" transform="translate(357,389)"/>
<path d="M0 0 C10.53 -0.02 21.05 -0.04 31.58 -0.05 C36.47 -0.06 41.35 -0.06 46.24 -0.08 C50.96 -0.09 55.67 -0.09 60.38 -0.09 C62.18 -0.1 63.99 -0.1 65.79 -0.11 C68.3 -0.11 70.82 -0.11 73.34 -0.11 C74.09 -0.12 74.84 -0.12 75.61 -0.12 C80.77 -0.11 80.77 -0.11 83 1 C83 1.66 83 2.32 83 3 C55.61 3 28.22 3 0 3 C0 2.01 0 1.02 0 0 Z " fill="#7B7D7C" transform="translate(1062,389)"/>
<path d="M0 0 C10.53 -0.02 21.05 -0.04 31.58 -0.05 C36.47 -0.06 41.35 -0.06 46.24 -0.08 C50.96 -0.09 55.67 -0.09 60.38 -0.09 C62.18 -0.1 63.99 -0.1 65.79 -0.11 C68.3 -0.11 70.82 -0.11 73.34 -0.11 C74.09 -0.12 74.84 -0.12 75.61 -0.12 C80.77 -0.11 80.77 -0.11 83 1 C83 1.66 83 2.32 83 3 C55.61 3 28.22 3 0 3 C0 2.01 0 1.02 0 0 Z " fill="#7B7D7C" transform="translate(1062,354)"/>
<path d="M0 0 C33 0 66 0 100 0 C100 0.66 100 1.32 100 2 C100.66 2 101.32 2 102 2 C103.14 5.42 103.1 8.09 103.06 11.69 C103.05 12.87 103.04 14.05 103.04 15.26 C103.02 16.17 103.01 17.07 103 18 C101.52 17.5 101.52 17.5 100 17 C99.51 9.57 99.51 9.57 99 2 C66.33 2 33.66 2 0 2 C0 1.34 0 0.68 0 0 Z " fill="#7B7D7C" transform="translate(1046,333)"/>
<path d="M0 0 C0.99 0.5 0.99 0.5 2 1 C4.22 1.09 6.43 1.12 8.65 1.11 C9.34 1.11 10.02 1.11 10.72 1.11 C12.98 1.11 15.25 1.11 17.51 1.1 C19.07 1.1 20.64 1.09 22.21 1.09 C26.33 1.09 30.46 1.08 34.59 1.07 C38.8 1.06 43.01 1.05 47.21 1.05 C55.48 1.04 63.74 1.02 72 1 C72.5 2.49 72.5 2.49 73 4 C49.24 4 25.48 4 1 4 C0.67 2.68 0.34 1.36 0 0 Z " fill="#7B7D7C" transform="translate(150,371)"/>
<path d="M0 0 C23.43 0 46.86 0 71 0 C71.5 1.98 71.5 1.98 72 4 C47.91 3.67 23.82 3.34 -1 3 C-0.67 2.01 -0.34 1.02 0 0 Z " fill="#7B7D7C" transform="translate(152,353)"/>
<path d="M0 0 C0.66 0 1.32 0 2 0 C3.13 7.52 3.13 7.52 2.51 9.81 C1.92 12.34 1.89 14.6 1.9 17.2 C1.91 18.18 1.91 19.16 1.91 20.17 C1.92 21.19 1.93 22.2 1.94 23.25 C1.94 24.28 1.95 25.31 1.95 26.38 C1.96 28.92 1.98 31.46 2 34 C1.34 34 0.68 34 0 34 C0 33.34 0 32.68 0 32 C-0.62 31.9 -1.24 31.79 -1.88 31.69 C-4 31 -4 31 -6 28 C-6.67 19.57 -6.54 10.79 -3 3 C-2.34 3 -1.68 3 -1 3 C-0.67 2.01 -0.34 1.02 0 0 Z " fill="#0A0B0A" transform="translate(743,452)"/>
<path d="M0 0 C0.85 -0 1.71 -0 2.58 -0 C3.52 -0 4.46 0 5.42 0.01 C6.41 0.01 7.39 0.01 8.41 0.01 C11.68 0.01 14.95 0.01 18.21 0.02 C20.48 0.02 22.74 0.03 25 0.03 C30.96 0.03 36.92 0.04 42.88 0.05 C48.96 0.06 55.04 0.07 61.12 0.07 C73.06 0.08 84.99 0.1 96.93 0.12 C96.93 1.11 96.93 2.1 96.93 3.12 C95.68 3.12 94.43 3.12 93.15 3.11 C81.42 3.09 69.69 3.08 57.97 3.07 C51.94 3.06 45.91 3.06 39.88 3.04 C34.06 3.03 28.24 3.03 22.43 3.03 C20.21 3.02 17.98 3.02 15.76 3.01 C12.66 3.01 9.55 3.01 6.45 3.01 C5.52 3 4.6 3 3.64 3 C2.38 3 2.38 3 1.08 3 C0.35 3 -0.39 3 -1.14 3 C-3.29 3.05 -3.29 3.05 -6.07 4.12 C-6.07 3.13 -6.07 2.14 -6.07 1.12 C-3.79 -0.02 -2.54 -0 0 0 Z " fill="#7C7E7D" transform="translate(344.0748596191406,332.87974548339844)"/>
<path d="M0 0 C0.24 4.6 0.43 8.72 -1.06 13.12 C-3 15 -3 15 -6.62 15.38 C-10 15 -10 15 -11 14 C-11.24 6.71 -11.24 6.71 -10 3 C-6.81 -0.19 -4.4 -0.3 0 0 Z " fill="#090A09" transform="translate(732,477)"/>
<path d="M0 0 C2 1.38 2 1.38 4 4 C4.53 7.38 4.62 10.63 4 14 C2.67 15.8 2.67 15.8 1 17 C-2.19 17.19 -2.19 17.19 -5 17 C-5.32 10.94 -5.5 6.25 -2 1 C-1.34 0.67 -0.68 0.34 0 0 Z " fill="#151615" transform="translate(754,485)"/>
<path d="M0 0 C2.5 0.25 2.5 0.25 4.5 2.25 C5.16 7.2 4.81 11.78 2.5 16.25 C0.33 15.74 -1.5 15.25 -3.5 14.25 C-4.67 10.27 -4.73 6.37 -4.5 2.25 C-2.5 0.25 -2.5 0.25 0 0 Z " fill="#FBFDFD" transform="translate(539.5,549.75)"/>
<path d="M0 0 C0 11.22 0 22.44 0 34 C-0.66 34 -1.32 34 -2 34 C-3.49 31.03 -3.11 28.34 -3.1 25.02 C-3.1 24 -3.1 24 -3.09 22.95 C-3.09 20.76 -3.08 18.57 -3.06 16.38 C-3.06 14.89 -3.05 13.41 -3.05 11.92 C-3.04 8.28 -3.02 4.64 -3 1 C-1 0 -1 0 0 0 Z " fill="#7B7D7C" transform="translate(153,391)"/>
<path d="M0 0 C0.69 0.04 1.37 0.07 2.08 0.11 C5.18 0.26 8.28 0.41 11.38 0.56 C13 0.65 13 0.65 14.65 0.73 C15.68 0.78 16.71 0.83 17.77 0.88 C19.2 0.95 19.2 0.95 20.66 1.02 C23.02 1.17 23.02 1.17 25 0 C24 3 24 3 22 4 C20.55 4.08 19.1 4.11 17.65 4.1 C16.8 4.09 15.95 4.09 15.07 4.09 C14.18 4.08 13.29 4.07 12.38 4.06 C11.48 4.06 10.58 4.05 9.66 4.05 C7.44 4.04 5.22 4.02 3 4 C3 3.34 3 2.68 3 2 C2.01 1.67 1.02 1.34 0 1 C0 0.67 0 0.34 0 0 Z " fill="#7B7D7C" transform="translate(878,429)"/>
<path d="M0 0 C5.94 0 11.88 0 18 0 C18 0.99 18 1.98 18 3 C12.06 3 6.12 3 0 3 C0 2.01 0 1.02 0 0 Z " fill="#767877" transform="translate(589,430)"/>
<path d="M0 0 C0.53 0.32 1.07 0.64 1.62 0.96 C4.52 2.23 6.97 2.38 10.12 2.56 C15.81 2.9 15.81 2.9 18 4 C18 4.66 18 5.32 18 6 C15.75 6.11 13.5 6.19 11.25 6.25 C9.37 6.32 9.37 6.32 7.45 6.39 C4 6 4 6 1.55 4.11 C0 2 0 2 0 0 Z " fill="#7B7D7C" transform="translate(219,424)"/>
<path d="M0 0 C0.99 0 1.98 0 3 0 C4.19 3.56 4.1 6.44 4.06 10.19 C4.05 11.46 4.04 12.73 4.04 14.04 C4.02 15.02 4.01 15.99 4 17 C3.01 16.67 2.02 16.34 1 16 C0.67 10.72 0.34 5.44 0 0 Z " fill="#787A79" transform="translate(1145,406)"/>
<path d="M0 0 C0.99 0 1.98 0 3 0 C3 4.95 3 9.9 3 15 C2.01 14.67 1.02 14.34 0 14 C0 9.38 0 4.76 0 0 Z " fill="#7B7D7C" transform="translate(750,426)"/>
<path d="M0 0 C1.79 -0.03 3.58 -0.05 5.38 -0.06 C6.37 -0.07 7.37 -0.09 8.4 -0.1 C11 0 11 0 13 1 C13 1.66 13 2.32 13 3 C8.71 3 4.42 3 0 3 C0 2.01 0 1.02 0 0 Z " fill="#7B7D7C" transform="translate(137,425)"/>
<path d="M0 0 C0 3.96 0 7.92 0 12 C-0.99 11.67 -1.98 11.34 -3 11 C-3 7.7 -3 4.4 -3 1 C-1 0 -1 0 0 0 Z " fill="#777978" transform="translate(1149,375)"/>
<path d="M0 0 C0.99 0 1.98 0 3 0 C3 3.3 3 6.6 3 10 C2.01 9.67 1.02 9.34 0 9 C0 6.03 0 3.06 0 0 Z " fill="#7B7D7C" transform="translate(747,371)"/>
</svg>
